<svg version="1" xmlns="http://www.w3.org/2000/svg" width="128" height="128" viewBox="0 0 24 24"><g><path d="M21.5 0h-19c-1.379 0-2.5 1.121-2.5 2.5v19c0 1.379 1.121 2.5 2.5 2.5h19c1.379 0 2.5-1.121 2.5-2.5v-19c0-1.379-1.121-2.5-2.5-2.5zm-19 1h19c.827 0 1.5.673 1.5 1.5v2.5h-22v-2.5c0-.827.673-1.5 1.5-1.5zm19 22h-19c-.827 0-1.5-.673-1.5-1.5v-15.5h22v15.5c0 .827-.673 1.5-1.5 1.5zM20.5 8h-7c-.276 0-.5.224-.5.5v5c0 .276.224.5.5.5h7c.276 0 .5-.224.5-.5v-5c0-.276-.224-.5-.5-.5zm-.5 5h-6v-4h6v4zM20.5 15h-7c-.276 0-.5.224-.5.5v5c0 .276.224.5.5.5h7c.276 0 .5-.224.5-.5v-5c0-.276-.224-.5-.5-.5zm-.5 5h-6v-4h6v4zM10.5 8h-7c-.276 0-.5.224-.5.5v8c0 .276.224.5.5.5h7c.276 0 .5-.224.5-.5v-8c0-.276-.224-.5-.5-.5zm-6.5 1h6v7h-.045c-.14-1.12-.729-2.062-1.554-2.576.369-.363.599-.867.599-1.424 0-1.102-.898-2-2-2s-2 .898-2 2c0 .557.23 1.061.599 1.424-.825.514-1.416 1.455-1.556 2.576h-.043v-7zm2 3c0-.552.448-1 1-1s1 .448 1 1-.448 1-1 1-1-.448-1-1zm-.96 4c.186-1.14.994-2 1.96-2s1.774.86 1.96 2h-3.92zM8 18h-4c-.276 0-.5.224-.5.5s.224.5.5.5h4c.276 0 .5-.224.5-.5s-.224-.5-.5-.5zM8 20h-4c-.276 0-.5.224-.5.5s.224.5.5.5h4c.276 0 .5-.224.5-.5s-.224-.5-.5-.5z"/><circle cx="4" cy="3" r="1"/><circle cx="7" cy="3" r="1"/><circle cx="10" cy="3" r="1"/></g></svg>
