<svg version="1" xmlns="http://www.w3.org/2000/svg" width="128" height="128" viewBox="0 0 24 24"><g><path d="M22 2h-20c-1.103 0-2 .938-2 2.089v14.822c0 1.151.897 2.089 2 2.089h9.5v1h-6.5c-.276 0-.5.224-.5.5s.224.5.5.5h14c.276 0 .5-.224.5-.5s-.224-.5-.5-.5h-6.5v-1h9.5c1.103 0 2-.938 2-2.089v-14.822c0-1.151-.897-2.089-2-2.089zm-20 1h20c.552 0 1 .488 1 1.089v11.911h-22v-11.911c0-.601.448-1.089 1-1.089zm20 17h-20c-.552 0-1-.488-1-1.089v-1.911h22v1.911c0 .601-.448 1.089-1 1.089z"/><circle cx="12" cy="18.5" r="1"/><path d="M3.487 12.494c.276 0 .5-.224.5-.5v-2h1.391v2c0 .276.224.5.5.5s.5-.224.5-.5v-5c0-.276-.224-.5-.5-.5s-.5.224-.5.5v2h-1.391v-2c0-.276-.224-.5-.5-.5s-.5.224-.5.5v5c0 .277.224.5.5.5zM12.671 12.494c.276 0 .5-.224.5-.5v-3.284l.67 1.053c.092.144.251.231.422.231s.33-.087.422-.231l.671-1.054v3.285c0 .276.224.5.5.5s.5-.224.5-.5v-5c0-.223-.146-.418-.36-.48-.211-.061-.442.024-.561.212l-1.171 1.838-1.17-1.838c-.12-.188-.353-.272-.562-.212-.214.062-.36.258-.36.48v5c-.001.277.222.5.499.5zM18.122 12.494h2.391c.276 0 .5-.224.5-.5s-.224-.5-.5-.5h-1.891v-4.5c0-.276-.224-.5-.5-.5s-.5.224-.5.5v5c0 .277.224.5.5.5zM8.1 7.494h.697v4.5c0 .276.224.5.5.5s.5-.224.5-.5v-4.5h.694c.276 0 .5-.224.5-.5s-.224-.5-.5-.5h-2.391c-.276 0-.5.224-.5.5 0 .277.223.5.5.5z"/></g></svg>
