<svg version="1" xmlns="http://www.w3.org/2000/svg" width="128" height="128" viewBox="0 0 24 24"><g><path d="M19.404 7.303l1.096-1.096.146.147c.098.097.226.146.354.146s.256-.049.354-.147c.195-.195.195-.512 0-.707l-1-1c-.195-.195-.512-.195-.707 0-.195.195-.195.512 0 .707l.146.147-1.095 1.096c-1.304-1.18-2.911-2.03-4.698-2.394v-3.202h1c.276 0 .5-.224.5-.5s-.224-.5-.5-.5h-6c-.276 0-.5.224-.5.5s.224.5.5.5h1v3.202c-4.559.929-8 4.969-8 9.798 0 5.514 4.486 10 10 10s10-4.486 10-10c0-2.578-.989-4.922-2.596-6.697zm-8.404-6.303h2v3.051c-.329-.033-.663-.051-1-.051s-.671.018-1 .051v-3.051zm1 22c-4.962 0-9-4.038-9-9s4.038-9 9-9 9 4.038 9 9-4.038 9-9 9zM7.853 9.146c-.195-.195-.512-.195-.707 0s-.195.512 0 .707l4.5 4.5c.098.098.226.147.354.147s.256-.049.354-.146c.195-.195.195-.512 0-.707l-4.501-4.501z"/></g></svg>
