<svg version="1" xmlns="http://www.w3.org/2000/svg" width="128" height="128" viewBox="0 0 24 24"><g><path d="M21.285 9.856c-.3-.525-.711-1.244-.721-1.45-.001-5.261-4.863-8.406-9.564-8.406-5.607 0-10 4.42-10 10.062 0 3.6 1.345 6.276 4 7.958v5.48c0 .276.224.5.5.5h10c.276 0 .5-.224.5-.5v-2.978c1.737-.017 2.788-.195 3.572-.981.835-.835.955-3.34.962-4.528.303.004.684.006 1.017-.007.388-.017.748-.212.962-.519.185-.264.188-.542.19-.744l.004-.138c.081-1.116-.718-2.515-1.422-3.749zm.419 3.877l-.009.18c-.036.051-.113.089-.185.093-.625.026-1.453-.005-1.458-.006-.134-.013-.272.046-.37.143-.098.097-.152.23-.149.368.033 1.485-.151 3.808-.667 4.323-.521.522-1.292.69-3.169.69h-.195c-.132 0-.259.052-.352.146-.097.093-.15.22-.15.353v2.977h-9v-5.26c0-.177-.093-.34-.245-.43-2.492-1.477-3.755-3.916-3.755-7.248 0-5.081 3.953-9.062 9-9.062 4.21 0 8.563 2.77 8.563 7.406 0 .432.308.992.853 1.946.57 1 1.352 2.368 1.294 3.18l-.006.201zM6.5 10h2c.276 0 .5-.224.5-.5v-3c0-.276-.224-.5-.5-.5h-2c-.276 0-.5.224-.5.5v3c0 .276.224.5.5.5zm.5-3h1v2h-1v-2zM10.5 11h-2c-.276 0-.5.224-.5.5v3c0 .276.224.5.5.5h2c.276 0 .5-.224.5-.5v-3c0-.276-.224-.5-.5-.5zm-.5 3h-1v-2h1v2zM16.5 6h-2c-.276 0-.5.224-.5.5v3c0 .276.224.5.5.5h2c.276 0 .5-.224.5-.5v-3c0-.276-.224-.5-.5-.5zm-.5 3h-1v-2h1v2zM10 6h1v4h-1zM12 6h1v4h-1zM6 11h1v4h-1zM12 11h1v4h-1zM14 11h1v4h-1zM16 11h1v4h-1z"/></g></svg>
