<svg version="1" xmlns="http://www.w3.org/2000/svg" width="128" height="128" viewBox="0 0 24 24"><g><path d="M15 1.472l6 4.286v4.742c0 .276.224.5.5.5s.5-.224.5-.5v-5c0-.162-.078-.313-.209-.407l-7-5-.03-.01c-.077-.048-.163-.083-.261-.083s-.184.035-.261.083l-.03.01-6.709 4.793-6.71-4.793c-.152-.11-.352-.124-.52-.038-.165.086-.27.257-.27.445v16c0 .162.078.313.209.407l7 5 .03.01c.077.048.163.083.261.083s.184-.035.261-.083l.03-.01 6-4.286c.225-.16.277-.473.116-.697-.161-.225-.472-.277-.697-.116l-5.21 3.721v-14.772l6-4.286v9.029c0 .276.224.5.5.5s.5-.224.5-.5v-9.028zm-14 0l6 4.286v14.771l-6-4.286v-14.771zM19.5 12c-2.481 0-4.5 2.019-4.5 4.5 0 2.323 3.695 6.816 4.116 7.32.095.114.236.18.384.18s.289-.066.384-.18c.421-.504 4.116-4.997 4.116-7.32 0-2.481-2.019-4.5-4.5-4.5zm0 10.707c-1.245-1.566-3.5-4.715-3.5-6.207 0-1.93 1.57-3.5 3.5-3.5s3.5 1.57 3.5 3.5c0 1.491-2.256 4.64-3.5 6.207zM19.5 14.5c-1.103 0-2 .897-2 2s.897 2 2 2 2-.897 2-2-.897-2-2-2zm0 3c-.551 0-1-.449-1-1s.449-1 1-1 1 .449 1 1-.449 1-1 1z"/></g></svg>
