<svg version="1" xmlns="http://www.w3.org/2000/svg" width="128" height="128" viewBox="0 0 24 24"><g><path d="M12 0c-6.617 0-12 5.383-12 12s5.383 12 12 12 12-5.383 12-12-5.383-12-12-12zm0 23c-6.065 0-11-4.935-11-11s4.935-11 11-11 11 4.935 11 11-4.935 11-11 11zM7 11.002v1c3.308 0 5.998 2.691 5.998 5.998h1c0-3.859-3.14-6.998-6.998-6.998zM7.5 15c-.276 0-.5.224-.5.5v2c0 .276.224.5.5.5h2c.276 0 .5-.224.5-.5 0-1.285-1.215-2.5-2.5-2.5zm.5 2v-.887c.381.168.719.506.888.887h-.888zM7 6.969v1c5.531 0 10.031 4.5 10.031 10.031h1c0-6.083-4.948-11.031-11.031-11.031z"/></g></svg>
