<svg version="1" xmlns="http://www.w3.org/2000/svg" width="128" height="128" viewBox="0 0 24 24"><g><path d="M21.5 2h-19c-1.379 0-2.5 1.121-2.5 2.5v14c0 1.379 1.121 2.5 2.5 2.5h19c1.379 0 2.5-1.121 2.5-2.5v-14c0-1.379-1.121-2.5-2.5-2.5zm-19 1h19c.827 0 1.5.673 1.5 1.5v2.5h-22v-2.5c0-.827.673-1.5 1.5-1.5zm19 17h-19c-.827 0-1.5-.673-1.5-1.5v-10.5h22v10.5c0 .827-.673 1.5-1.5 1.5z"/><circle cx="4" cy="5" r="1"/><circle cx="7" cy="5" r="1"/><circle cx="10" cy="5" r="1"/><path d="M7.5 10h-3c-.276 0-.5.224-.5.5v3c0 .276.224.5.5.5h3c.276 0 .5-.224.5-.5v-3c0-.276-.224-.5-.5-.5zm-.5 3h-2v-2h2v2zM7.5 15h-3c-.276 0-.5.224-.5.5v3c0 .276.224.5.5.5h3c.276 0 .5-.224.5-.5v-3c0-.276-.224-.5-.5-.5zm-.5 3h-2v-2h2v2zM13.5 10h-3c-.276 0-.5.224-.5.5v3c0 .276.224.5.5.5h3c.276 0 .5-.224.5-.5v-3c0-.276-.224-.5-.5-.5zm-.5 3h-2v-2h2v2zM13.5 15h-3c-.276 0-.5.224-.5.5v3c0 .276.224.5.5.5h3c.276 0 .5-.224.5-.5v-3c0-.276-.224-.5-.5-.5zm-.5 3h-2v-2h2v2zM19.5 10h-3c-.276 0-.5.224-.5.5v3c0 .276.224.5.5.5h3c.276 0 .5-.224.5-.5v-3c0-.276-.224-.5-.5-.5zm-.5 3h-2v-2h2v2zM19.5 15h-3c-.276 0-.5.224-.5.5v3c0 .276.224.5.5.5h3c.276 0 .5-.224.5-.5v-3c0-.276-.224-.5-.5-.5zm-.5 3h-2v-2h2v2z"/></g></svg>
