<svg version="1" xmlns="http://www.w3.org/2000/svg" width="128" height="128" viewBox="0 0 24 24"><g><path d="M22.5 11h-1.5v-1.5c0-.276-.224-.5-.5-.5h-1.5v-1.5c0-.276-.224-.5-.5-.5h-1.5v-1h1.5c.276 0 .5-.224.5-.5v-2c0-.276-.224-.5-.5-.5h-2c-.276 0-.5.224-.5.5v1.5h-1.5c-.276 0-.5.224-.5.5v1.5h-5v-1.5c0-.276-.224-.5-.5-.5h-1.5v-1.5c0-.276-.224-.5-.5-.5h-2c-.276 0-.5.224-.5.5v2c0 .276.224.5.5.5h1.5v1h-1.5c-.276 0-.5.224-.5.5v1.5h-1.5c-.276 0-.5.224-.5.5v1.5h-1.5c-.276 0-.5.224-.5.5v6c0 .276.224.5.5.5h2c.276 0 .5-.224.5-.5v-3.5h1v3.5c0 .276.224.5.5.5h1.5v1.5c0 .276.224.5.5.5h4c.276 0 .5-.224.5-.5v-2c0-.276-.224-.5-.5-.5h-3.5v-1h9v1h-3.5c-.276 0-.5.224-.5.5v2c0 .276.224.5.5.5h4c.276 0 .5-.224.5-.5v-1.5h1.5c.276 0 .5-.224.5-.5v-3.5h1v3.5c0 .276.224.5.5.5h2c.276 0 .5-.224.5-.5v-6c0-.276-.224-.5-.5-.5zm-5.5-7h1v1h-1v-1zm-12 0h1v1h-1v-1zm5 15h-3v-1h3v1zm6 0h-3v-1h3v1zm6-2h-1v-3.5c0-.276-.224-.5-.5-.5h-2c-.276 0-.5.224-.5.5v3.5h-1v-1.5c0-.276-.224-.5-.5-.5h-10c-.276 0-.5.224-.5.5v1.5h-1v-3.5c0-.276-.224-.5-.5-.5h-2c-.276 0-.5.224-.5.5v3.5h-1v-5h1.5c.276 0 .5-.224.5-.5v-1.5h1.5c.276 0 .5-.224.5-.5v-1.5h1.5c.276 0 .5-.224.5-.5v-1.5h1v1.5c0 .276.224.5.5.5h6c.276 0 .5-.224.5-.5v-1.5h1v1.5c0 .276.224.5.5.5h1.5v1.5c0 .276.224.5.5.5h1.5v1.5c0 .276.224.5.5.5h1.5v5zM8.5 9h-2c-.276 0-.5.224-.5.5v2c0 .276.224.5.5.5h2c.276 0 .5-.224.5-.5v-2c0-.276-.224-.5-.5-.5zm-.5 2h-1v-1h1v1zM16.5 9h-2c-.276 0-.5.224-.5.5v2c0 .276.224.5.5.5h2c.276 0 .5-.224.5-.5v-2c0-.276-.224-.5-.5-.5zm-.5 2h-1v-1h1v1z"/></g></svg>
